# This file uses centimeters as units for non-parametric coordinates.

mtllib cono.mtl
g default
v -9.104269 2.932225 3.649625
v -9.193352 2.932225 3.372648
v -9.332100 2.932225 3.152839
v -9.506933 2.932225 3.011713
v -9.700738 2.932225 2.963084
v -9.894543 2.932225 3.011713
v -10.069376 2.932225 3.152839
v -10.208124 2.932225 3.372649
v -10.297206 2.932225 3.649625
v -10.327902 2.932225 3.956655
v -10.297206 2.932225 4.263685
v -10.208124 2.932225 4.540661
v -10.069376 2.932225 4.760471
v -9.894543 2.932225 4.901597
v -9.700738 2.932225 4.950226
v -9.506934 2.932225 4.901597
v -9.332100 2.932225 4.760471
v -9.193352 2.932225 4.540661
v -9.104270 2.932225 4.263685
v -9.073574 2.932225 3.956655
v -9.700738 3.572128 3.956655
vt 0.737764 0.172746
vt 0.702254 0.103054
vt 0.646946 0.047746
vt 0.577254 0.012236
vt 0.500000 -0.000000
vt 0.422746 0.012236
vt 0.353054 0.047746
vt 0.297746 0.103054
vt 0.262236 0.172746
vt 0.250000 0.250000
vt 0.262236 0.327254
vt 0.297746 0.396946
vt 0.353054 0.452254
vt 0.422746 0.487764
vt 0.500000 0.500000
vt 0.577254 0.487764
vt 0.646946 0.452254
vt 0.702254 0.396946
vt 0.737764 0.327254
vt 0.750000 0.250000
vt 0.250000 0.500000
vt 0.275000 0.500000
vt 0.300000 0.500000
vt 0.325000 0.500000
vt 0.350000 0.500000
vt 0.375000 0.500000
vt 0.400000 0.500000
vt 0.425000 0.500000
vt 0.450000 0.500000
vt 0.475000 0.500000
vt 0.500000 0.500000
vt 0.525000 0.500000
vt 0.550000 0.500000
vt 0.575000 0.500000
vt 0.600000 0.500000
vt 0.625000 0.500000
vt 0.650000 0.500000
vt 0.675000 0.500000
vt 0.700000 0.500000
vt 0.725000 0.500000
vt 0.750000 0.500000
vt 0.500000 1.000000
vn 0.000000 -1.000000 0.000000
vn 0.000000 -1.000000 0.000000
vn 0.000000 -1.000000 0.000000
vn 0.000000 -1.000000 0.000000
vn 0.000000 -1.000000 0.000000
vn 0.000000 -1.000000 0.000000
vn 0.000000 -1.000000 0.000000
vn 0.000000 -1.000000 0.000000
vn 0.000000 -1.000000 0.000000
vn 0.000000 -1.000000 0.000000
vn 0.000000 -1.000000 0.000000
vn 0.000000 -1.000000 0.000000
vn 0.000000 -1.000000 0.000000
vn 0.000000 -1.000000 0.000000
vn 0.000000 -1.000000 0.000000
vn 0.000000 -1.000000 0.000000
vn 0.000000 -1.000000 0.000000
vn 0.000000 -1.000000 0.000000
vn 0.000000 -1.000000 0.000000
vn 0.000000 -1.000000 0.000000
vn 0.686080 0.711769 -0.150597
vn 0.599198 0.744291 -0.294946
vn 0.000000 1.000000 -0.000000
vn 0.448999 0.787947 -0.421354
vn 0.240849 0.825854 -0.509860
vn 0.000000 0.840724 -0.541464
vn -0.240848 0.825855 -0.509860
vn -0.448999 0.787948 -0.421353
vn -0.599199 0.744290 -0.294945
vn -0.686081 0.711768 -0.150597
vn -0.714181 0.699961 -0.000000
vn -0.686081 0.711767 0.150597
vn -0.599199 0.744290 0.294945
vn -0.448997 0.787949 0.421354
vn -0.240849 0.825854 0.509859
vn -0.000000 0.840723 0.541465
vn 0.240850 0.825853 0.509861
vn 0.448997 0.787948 0.421354
vn 0.599198 0.744291 0.294945
vn 0.686080 0.711769 0.150597
vn 0.714179 0.699963 0.000001
s off
g pCone1
usemtl lambert10SG
f 1/1/1 20/20/2 19/19/3 18/18/4 17/17/5 16/16/6 15/15/7 14/14/8 13/13/9 12/12/10 11/11/11 10/10/12 9/9/13 8/8/14 7/7/15 6/6/16 5/5/17 4/4/18 3/3/19 2/2/20
s 1
f 1/21/21 2/22/22 21/42/23
f 2/22/22 3/23/24 21/42/23
f 3/23/24 4/24/25 21/42/23
f 4/24/25 5/25/26 21/42/23
f 5/25/26 6/26/27 21/42/23
f 6/26/27 7/27/28 21/42/23
f 7/27/28 8/28/29 21/42/23
f 8/28/29 9/29/30 21/42/23
f 9/29/30 10/30/31 21/42/23
f 10/30/31 11/31/32 21/42/23
f 11/31/32 12/32/33 21/42/23
f 12/32/33 13/33/34 21/42/23
f 13/33/34 14/34/35 21/42/23
f 14/34/35 15/35/36 21/42/23
f 15/35/36 16/36/37 21/42/23
f 16/36/37 17/37/38 21/42/23
f 17/37/38 18/38/39 21/42/23
f 18/38/39 19/39/40 21/42/23
f 19/39/40 20/40/41 21/42/23
f 20/40/41 1/41/21 21/42/23
