# This file uses centimeters as units for non-parametric coordinates.

mtllib libreroPuertaDer.mtl
g default
v -1.063876 -1.839836 0.019556
v -1.062426 -1.839836 0.054818
v -1.063876 2.129117 0.019556
v -1.062426 2.129117 0.054818
v -0.011873 2.129117 -0.023716
v -0.010423 2.129117 0.011546
v -0.011873 -1.839836 -0.023716
v -0.010423 -1.839836 0.011546
v -1.063876 1.697427 0.019556
v -0.011873 1.697424 -0.023716
v -0.010423 1.697424 0.011546
v -1.062426 1.697427 0.054818
v -0.857048 2.129117 0.011049
v -0.857048 1.697427 0.011049
v -0.857048 -1.839836 0.011049
v -0.855597 -1.839836 0.046311
v -0.855597 1.697427 0.046311
v -0.855597 2.129117 0.046311
v -0.252169 -1.839836 -0.013832
v -0.252169 1.697427 -0.013832
v -0.252169 2.129117 -0.013832
v -0.250718 2.129117 0.021430
v -0.250718 1.697427 0.021430
v -0.250718 -1.839836 0.021430
v -1.063876 -1.509655 0.019556
v -0.857048 -1.509657 0.011049
v -0.252169 -1.509655 -0.013832
v -0.011873 -1.509657 -0.023716
v -0.010423 -1.509657 0.011546
v -0.250718 -1.509657 0.021430
v -0.855597 -1.509655 0.046311
v -1.062426 -1.509655 0.054818
v -0.992991 -0.145344 0.043503
v -0.990395 -0.145344 0.106633
v -0.992991 -0.012440 0.043503
v -0.990395 -0.012440 0.106633
v -0.912658 -0.012440 0.040199
v -0.910062 -0.012440 0.103329
v -0.912658 -0.145344 0.040199
v -0.910062 -0.145344 0.103329
v -0.992991 -0.451932 0.043503
v -0.990395 -0.451932 0.106633
v -0.992991 -0.319028 0.043503
v -0.990395 -0.319028 0.106633
v -0.912658 -0.319028 0.040199
v -0.910062 -0.319028 0.103329
v -0.912658 -0.451932 0.040199
v -0.910062 -0.451932 0.103329
v -0.940972 -0.394508 0.157561
v -0.927320 -0.394508 0.151256
v -0.916666 -0.394508 0.141871
v -0.910051 -0.394508 0.130326
v -0.908127 -0.394508 0.117752
v -0.911078 -0.394508 0.105377
v -0.918617 -0.394508 0.094414
v -0.930007 -0.394508 0.085937
v -0.944130 -0.394508 0.080774
v -0.959607 -0.394508 0.079431
v -0.974920 -0.394508 0.082040
v -0.988572 -0.394508 0.088346
v -0.999226 -0.394508 0.097729
v -1.005840 -0.394508 0.109275
v -1.007765 -0.394508 0.121851
v -1.004814 -0.394508 0.134223
v -0.997273 -0.394508 0.145187
v -0.985885 -0.394508 0.153665
v -0.971761 -0.394508 0.158827
v -0.956285 -0.394508 0.160171
v -0.940972 -0.026028 0.157561
v -0.927320 -0.026028 0.151256
v -0.916666 -0.026028 0.141871
v -0.910051 -0.026028 0.130326
v -0.908127 -0.026028 0.117752
v -0.911078 -0.026028 0.105377
v -0.918617 -0.026028 0.094414
v -0.930007 -0.026028 0.085937
v -0.944130 -0.026028 0.080774
v -0.959607 -0.026028 0.079431
v -0.974920 -0.026028 0.082040
v -0.988572 -0.026028 0.088346
v -0.999226 -0.026028 0.097729
v -1.005840 -0.026028 0.109275
v -1.007765 -0.026028 0.121851
v -1.004814 -0.026028 0.134223
v -0.997273 -0.026028 0.145187
v -0.985885 -0.026028 0.153665
v -0.971761 -0.026028 0.158827
v -0.956285 -0.026028 0.160171
v -0.957946 -0.394508 0.119801
v -0.957946 -0.026028 0.119801
vt 0.375000 0.000000
vt 0.625000 0.000000
vt 0.625000 0.020798
vt 0.375000 0.020798
vt 0.375000 0.250000
vt 0.625000 0.250000
vt 0.625000 0.299151
vt 0.375000 0.299151
vt 0.375000 0.729202
vt 0.625000 0.729202
vt 0.625000 0.750000
vt 0.375000 0.750000
vt 0.375000 0.950849
vt 0.625000 0.950849
vt 0.625000 1.000000
vt 0.375000 1.000000
vt 0.674151 0.000000
vt 0.674151 0.020798
vt 0.325849 0.020798
vt 0.325849 0.000000
vt 0.325849 0.250000
vt 0.325849 0.222808
vt 0.375000 0.222808
vt 0.375000 0.500000
vt 0.625000 0.500000
vt 0.625000 0.527192
vt 0.375000 0.527192
vt 0.625000 0.222808
vt 0.674151 0.222808
vt 0.674151 0.250000
vt 0.125000 0.222808
vt 0.182104 0.222808
vt 0.182104 0.250000
vt 0.125000 0.250000
vt 0.125000 0.000000
vt 0.182104 0.000000
vt 0.182104 0.020798
vt 0.125000 0.020798
vt 0.625000 0.807104
vt 0.375000 0.807104
vt 0.875000 0.020798
vt 0.817896 0.020798
vt 0.817896 0.000000
vt 0.875000 0.000000
vt 0.817896 0.250000
vt 0.817896 0.222808
vt 0.875000 0.222808
vt 0.875000 0.250000
vt 0.375000 0.442896
vt 0.625000 0.442896
vt 0.375000 0.000000
vt 0.625000 0.000000
vt 0.625000 0.250000
vt 0.375000 0.250000
vt 0.625000 0.500000
vt 0.375000 0.500000
vt 0.625000 0.750000
vt 0.375000 0.750000
vt 0.625000 1.000000
vt 0.375000 1.000000
vt 0.875000 0.000000
vt 0.875000 0.250000
vt 0.125000 0.000000
vt 0.125000 0.250000
vt 0.375000 0.000000
vt 0.625000 0.000000
vt 0.625000 0.250000
vt 0.375000 0.250000
vt 0.625000 0.500000
vt 0.375000 0.500000
vt 0.625000 0.750000
vt 0.375000 0.750000
vt 0.625000 1.000000
vt 0.375000 1.000000
vt 0.875000 0.000000
vt 0.875000 0.250000
vt 0.125000 0.000000
vt 0.125000 0.250000
vt 0.375000 0.312500
vt 0.387500 0.312500
vt 0.387500 0.687500
vt 0.375000 0.687500
vt 0.400000 0.312500
vt 0.400000 0.687500
vt 0.412500 0.312500
vt 0.412500 0.687500
vt 0.425000 0.312500
vt 0.425000 0.687500
vt 0.437500 0.312500
vt 0.437500 0.687500
vt 0.450000 0.312500
vt 0.450000 0.687500
vt 0.462500 0.312500
vt 0.462500 0.687500
vt 0.475000 0.312500
vt 0.475000 0.687500
vt 0.487500 0.312500
vt 0.487500 0.687500
vt 0.500000 0.312500
vt 0.500000 0.687500
vt 0.512500 0.312500
vt 0.512500 0.687500
vt 0.525000 0.312500
vt 0.525000 0.687500
vt 0.537500 0.312500
vt 0.537500 0.687500
vt 0.550000 0.312500
vt 0.550000 0.687500
vt 0.562500 0.312500
vt 0.562500 0.687500
vt 0.575000 0.312500
vt 0.575000 0.687500
vt 0.587500 0.312500
vt 0.587500 0.687500
vt 0.600000 0.312500
vt 0.600000 0.687500
vt 0.612500 0.312500
vt 0.612500 0.687500
vt 0.625000 0.312500
vt 0.625000 0.687500
vt 0.626409 0.064408
vt 0.648603 0.107966
vt 0.500000 0.156250
vt 0.591842 0.029841
vt 0.548284 0.007647
vt 0.500000 -0.000000
vt 0.451716 0.007647
vt 0.408159 0.029841
vt 0.373591 0.064409
vt 0.351397 0.107966
vt 0.343750 0.156250
vt 0.351397 0.204534
vt 0.373591 0.248091
vt 0.408159 0.282659
vt 0.451716 0.304853
vt 0.500000 0.312500
vt 0.548284 0.304853
vt 0.591841 0.282659
vt 0.626409 0.248091
vt 0.648603 0.204534
vt 0.656250 0.156250
vt 0.648603 0.892034
vt 0.626409 0.935591
vt 0.500000 0.843750
vt 0.591841 0.970159
vt 0.548284 0.992353
vt 0.500000 1.000000
vt 0.451716 0.992353
vt 0.408159 0.970159
vt 0.373591 0.935591
vt 0.351397 0.892034
vt 0.343750 0.843750
vt 0.351397 0.795466
vt 0.373591 0.751909
vt 0.408159 0.717341
vt 0.451716 0.695147
vt 0.500000 0.687500
vt 0.548284 0.695147
vt 0.591842 0.717341
vt 0.626409 0.751908
vt 0.648603 0.795466
vt 0.656250 0.843750
vn -0.999155 0.000000 0.041092
vn -0.999155 0.000000 0.041092
vn -0.999155 0.000000 0.041092
vn -0.999155 0.000000 0.041092
vn 0.000000 1.000000 -0.000000
vn 0.000000 1.000000 -0.000000
vn 0.000000 1.000000 -0.000000
vn 0.000000 1.000000 -0.000000
vn 0.999155 0.000000 -0.041093
vn 0.999155 0.000000 -0.041093
vn 0.999155 0.000000 -0.041093
vn 0.999155 0.000000 -0.041093
vn 0.000000 -1.000000 -0.000000
vn 0.000000 -1.000000 -0.000000
vn 0.000000 -1.000000 -0.000000
vn 0.000000 -1.000000 -0.000000
vn 0.041096 0.000000 0.999155
vn 0.041096 0.000000 0.999155
vn 0.041096 0.000000 0.999155
vn 0.041096 0.000000 0.999155
vn -0.041096 0.000000 -0.999155
vn -0.041096 0.000000 -0.999155
vn -0.041096 0.000000 -0.999155
vn -0.041096 0.000000 -0.999155
vn -0.041096 0.000000 -0.999155
vn -0.041096 0.000000 -0.999155
vn -0.041096 0.000000 -0.999155
vn -0.041096 0.000000 -0.999155
vn 0.999155 0.000000 -0.041094
vn 0.999155 0.000000 -0.041094
vn 0.999155 0.000000 -0.041094
vn 0.999155 0.000000 -0.041094
vn 0.041096 0.000000 0.999155
vn 0.041096 0.000000 0.999155
vn 0.041096 0.000000 0.999155
vn 0.041096 0.000000 0.999155
vn -0.999155 0.000000 0.041091
vn -0.999155 0.000000 0.041091
vn -0.999155 0.000000 0.041091
vn -0.999155 0.000000 0.041091
vn -0.041098 0.000000 -0.999155
vn -0.041098 0.000000 -0.999155
vn -0.041098 0.000000 -0.999155
vn -0.041098 0.000000 -0.999155
vn -0.041098 0.000000 -0.999155
vn -0.041098 0.000000 -0.999155
vn -0.041098 0.000000 -0.999155
vn -0.041098 0.000000 -0.999155
vn -0.000000 -1.000000 0.000000
vn -0.000000 -1.000000 0.000000
vn -0.000000 -1.000000 0.000000
vn -0.000000 -1.000000 0.000000
vn 0.041098 0.000000 0.999155
vn 0.041098 0.000000 0.999155
vn 0.041098 0.000000 0.999155
vn 0.041098 0.000000 0.999155
vn 0.041098 0.000000 0.999155
vn 0.041098 0.000000 0.999155
vn 0.041098 0.000000 0.999155
vn 0.041098 0.000000 0.999155
vn -0.000000 1.000000 0.000000
vn -0.000000 1.000000 0.000000
vn -0.000000 1.000000 0.000000
vn -0.000000 1.000000 0.000000
vn -0.041100 0.000000 -0.999155
vn -0.041100 0.000000 -0.999155
vn -0.041100 0.000000 -0.999155
vn -0.041100 0.000000 -0.999155
vn -0.041100 0.000000 -0.999155
vn -0.041100 0.000000 -0.999155
vn -0.041100 0.000000 -0.999155
vn -0.041100 0.000000 -0.999155
vn -0.000000 1.000000 0.000000
vn -0.000000 1.000000 0.000000
vn -0.000000 1.000000 0.000000
vn -0.000000 1.000000 0.000000
vn 0.041100 0.000000 0.999155
vn 0.041100 0.000000 0.999155
vn 0.041100 0.000000 0.999155
vn 0.041100 0.000000 0.999155
vn 0.041100 0.000000 0.999155
vn 0.041100 0.000000 0.999155
vn 0.041100 0.000000 0.999155
vn 0.041100 0.000000 0.999155
vn 0.000000 -1.000000 -0.000000
vn 0.000000 -1.000000 -0.000000
vn 0.000000 -1.000000 -0.000000
vn 0.000000 -1.000000 -0.000000
vn -0.041096 0.000000 -0.999155
vn -0.041096 0.000000 -0.999155
vn -0.041096 0.000000 -0.999155
vn -0.041096 0.000000 -0.999155
vn -0.041098 0.000000 -0.999155
vn -0.041098 0.000000 -0.999155
vn -0.041098 0.000000 -0.999155
vn -0.041098 0.000000 -0.999155
vn 0.999155 0.000000 -0.041092
vn 0.999155 0.000000 -0.041092
vn 0.999155 0.000000 -0.041092
vn 0.999155 0.000000 -0.041092
vn 0.041098 0.000000 0.999155
vn 0.041098 0.000000 0.999155
vn 0.041098 0.000000 0.999155
vn 0.041098 0.000000 0.999155
vn 0.041096 0.000000 0.999155
vn 0.041096 0.000000 0.999155
vn 0.041096 0.000000 0.999155
vn 0.041096 0.000000 0.999155
vn -0.999156 0.000000 0.041089
vn -0.999156 0.000000 0.041089
vn -0.999156 0.000000 0.041089
vn -0.999156 0.000000 0.041089
vn -0.999156 0.000000 0.041088
vn -0.999156 0.000000 0.041088
vn -0.999156 0.000000 0.041088
vn -0.999156 0.000000 0.041088
vn -0.000000 1.000000 0.000000
vn -0.000000 1.000000 0.000000
vn -0.000000 1.000000 0.000000
vn -0.000000 1.000000 0.000000
vn 0.999156 0.000000 -0.041090
vn 0.999156 0.000000 -0.041090
vn 0.999156 0.000000 -0.041090
vn 0.999156 0.000000 -0.041090
vn 0.000000 -1.000000 -0.000000
vn 0.000000 -1.000000 -0.000000
vn 0.000000 -1.000000 -0.000000
vn 0.000000 -1.000000 -0.000000
vn 0.041100 0.000000 0.999155
vn 0.041100 0.000000 0.999155
vn 0.041100 0.000000 0.999155
vn 0.041100 0.000000 0.999155
vn -0.041100 0.000000 -0.999155
vn -0.041100 0.000000 -0.999155
vn -0.041100 0.000000 -0.999155
vn -0.041100 0.000000 -0.999155
vn -0.999156 0.000000 0.041088
vn -0.999156 0.000000 0.041088
vn -0.999156 0.000000 0.041088
vn -0.999156 0.000000 0.041088
vn 0.000000 1.000000 -0.000000
vn 0.000000 1.000000 -0.000000
vn 0.000000 1.000000 -0.000000
vn 0.000000 1.000000 -0.000000
vn 0.999155 0.000000 -0.041092
vn 0.999155 0.000000 -0.041092
vn 0.999155 0.000000 -0.041092
vn 0.999155 0.000000 -0.041092
vn 0.000000 -1.000000 -0.000000
vn 0.000000 -1.000000 -0.000000
vn 0.000000 -1.000000 -0.000000
vn 0.000000 -1.000000 -0.000000
vn 0.041100 0.000000 0.999155
vn 0.041100 0.000000 0.999155
vn 0.041100 0.000000 0.999155
vn 0.041100 0.000000 0.999155
vn -0.041100 0.000000 -0.999155
vn -0.041100 0.000000 -0.999155
vn -0.041100 0.000000 -0.999155
vn -0.041100 0.000000 -0.999155
vn 0.419286 0.000000 0.907854
vn 0.419286 0.000000 0.907854
vn 0.419286 0.000000 0.907854
vn 0.419286 0.000000 0.907854
vn 0.660952 0.000000 0.750428
vn 0.660952 0.000000 0.750428
vn 0.660952 0.000000 0.750428
vn 0.660952 0.000000 0.750428
vn 0.867695 0.000000 0.497097
vn 0.867695 0.000000 0.497097
vn 0.867695 0.000000 0.497097
vn 0.867695 0.000000 0.497097
vn 0.988489 0.000000 0.151290
vn 0.988489 0.000000 0.151290
vn 0.988489 0.000000 0.151290
vn 0.988489 0.000000 0.151290
vn 0.972729 0.000000 -0.231947
vn 0.972729 0.000000 -0.231947
vn 0.972729 0.000000 -0.231947
vn 0.972729 0.000000 -0.231947
vn 0.823959 0.000000 -0.566649
vn 0.823959 0.000000 -0.566649
vn 0.823959 0.000000 -0.566649
vn 0.823959 0.000000 -0.566649
vn 0.597069 0.000000 -0.802190
vn 0.597069 0.000000 -0.802190
vn 0.597069 0.000000 -0.802190
vn 0.597069 0.000000 -0.802190
vn 0.343299 0.000000 -0.939226
vn 0.343299 0.000000 -0.939226
vn 0.343299 0.000000 -0.939226
vn 0.343299 0.000000 -0.939226
vn 0.086453 0.000000 -0.996256
vn 0.086453 0.000000 -0.996256
vn 0.086453 0.000000 -0.996256
vn 0.086453 0.000000 -0.996256
vn -0.167937 0.000000 -0.985798
vn -0.167937 0.000000 -0.985798
vn -0.167937 0.000000 -0.985798
vn -0.167937 0.000000 -0.985798
vn -0.419335 0.000000 -0.907832
vn -0.419335 0.000000 -0.907832
vn -0.419335 0.000000 -0.907832
vn -0.419335 0.000000 -0.907832
vn -0.660948 0.000000 -0.750432
vn -0.660948 0.000000 -0.750432
vn -0.660948 0.000000 -0.750432
vn -0.660948 0.000000 -0.750432
vn -0.867698 0.000000 -0.497092
vn -0.867698 0.000000 -0.497092
vn -0.867698 0.000000 -0.497092
vn -0.867698 0.000000 -0.497092
vn -0.988495 0.000000 -0.151253
vn -0.988495 0.000000 -0.151253
vn -0.988495 0.000000 -0.151253
vn -0.988495 0.000000 -0.151253
vn -0.972723 0.000000 0.231969
vn -0.972723 0.000000 0.231969
vn -0.972723 0.000000 0.231969
vn -0.972723 0.000000 0.231969
vn -0.823924 0.000000 0.566700
vn -0.823924 0.000000 0.566700
vn -0.823924 0.000000 0.566700
vn -0.823924 0.000000 0.566700
vn -0.597150 0.000000 0.802129
vn -0.597150 0.000000 0.802129
vn -0.597150 0.000000 0.802129
vn -0.597150 0.000000 0.802129
vn -0.343299 0.000000 0.939226
vn -0.343299 0.000000 0.939226
vn -0.343299 0.000000 0.939226
vn -0.343299 0.000000 0.939226
vn -0.086517 0.000000 0.996250
vn -0.086517 0.000000 0.996250
vn -0.086517 0.000000 0.996250
vn -0.086517 0.000000 0.996250
vn 0.168070 0.000000 0.985775
vn 0.168070 0.000000 0.985775
vn 0.168070 0.000000 0.985775
vn 0.168070 0.000000 0.985775
vn -0.000003 -1.000000 0.000000
vn -0.000003 -1.000000 0.000000
vn -0.000003 -1.000000 0.000000
vn 0.000000 -1.000000 0.000000
vn 0.000000 -1.000000 0.000000
vn 0.000000 -1.000000 0.000000
vn 0.000000 -1.000000 0.000000
vn 0.000000 -1.000000 0.000000
vn 0.000000 -1.000000 0.000000
vn 0.000001 -1.000000 -0.000000
vn 0.000001 -1.000000 -0.000000
vn 0.000001 -1.000000 -0.000000
vn 0.000000 -1.000000 0.000000
vn 0.000000 -1.000000 0.000000
vn 0.000000 -1.000000 0.000000
vn 0.000000 -1.000000 0.000000
vn 0.000000 -1.000000 0.000000
vn 0.000000 -1.000000 0.000000
vn 0.000003 -1.000000 -0.000000
vn 0.000003 -1.000000 -0.000000
vn 0.000003 -1.000000 -0.000000
vn 0.000000 -1.000000 0.000000
vn 0.000000 -1.000000 0.000000
vn 0.000000 -1.000000 0.000000
vn 0.000006 -1.000000 -0.000000
vn 0.000006 -1.000000 -0.000000
vn 0.000006 -1.000000 -0.000000
vn -0.000003 -1.000000 0.000000
vn -0.000003 -1.000000 0.000000
vn -0.000003 -1.000000 0.000000
vn 0.000003 -1.000000 -0.000000
vn 0.000003 -1.000000 -0.000000
vn 0.000003 -1.000000 -0.000000
vn -0.000003 -1.000000 0.000000
vn -0.000003 -1.000000 0.000000
vn -0.000003 -1.000000 0.000000
vn 0.000000 -1.000000 0.000000
vn 0.000000 -1.000000 0.000000
vn 0.000000 -1.000000 0.000000
vn -0.000001 -1.000000 0.000000
vn -0.000001 -1.000000 0.000000
vn -0.000001 -1.000000 0.000000
vn 0.000000 -1.000000 0.000000
vn 0.000000 -1.000000 0.000000
vn 0.000000 -1.000000 0.000000
vn 0.000000 -1.000000 0.000000
vn 0.000000 -1.000000 0.000000
vn 0.000000 -1.000000 0.000000
vn -0.000003 -1.000000 0.000000
vn -0.000003 -1.000000 0.000000
vn -0.000003 -1.000000 0.000000
vn 0.000000 -1.000000 0.000000
vn 0.000000 -1.000000 0.000000
vn 0.000000 -1.000000 0.000000
vn 0.000006 -1.000000 -0.000000
vn 0.000006 -1.000000 -0.000000
vn 0.000006 -1.000000 -0.000000
vn -0.000003 -1.000000 0.000000
vn -0.000003 -1.000000 0.000000
vn -0.000003 -1.000000 0.000000
vn -0.000000 1.000000 0.000000
vn -0.000000 1.000000 0.000000
vn -0.000000 1.000000 0.000000
vn 0.000000 1.000000 0.000000
vn 0.000000 1.000000 0.000000
vn 0.000000 1.000000 0.000000
vn 0.000000 1.000000 0.000000
vn 0.000000 1.000000 0.000000
vn 0.000000 1.000000 0.000000
vn 0.000000 1.000000 0.000000
vn 0.000000 1.000000 0.000000
vn 0.000000 1.000000 0.000000
vn 0.000000 1.000000 -0.000000
vn 0.000000 1.000000 -0.000000
vn 0.000000 1.000000 -0.000000
vn 0.000000 1.000000 -0.000000
vn 0.000000 1.000000 -0.000000
vn 0.000000 1.000000 -0.000000
vn -0.000000 1.000000 0.000000
vn -0.000000 1.000000 0.000000
vn -0.000000 1.000000 0.000000
vn -0.000000 1.000000 0.000000
vn -0.000000 1.000000 0.000000
vn -0.000000 1.000000 0.000000
vn 0.000000 1.000000 -0.000000
vn 0.000000 1.000000 -0.000000
vn 0.000000 1.000000 -0.000000
vn -0.000000 1.000000 0.000000
vn -0.000000 1.000000 0.000000
vn -0.000000 1.000000 0.000000
vn 0.000000 1.000000 -0.000000
vn 0.000000 1.000000 -0.000000
vn 0.000000 1.000000 -0.000000
vn 0.000000 1.000000 0.000000
vn 0.000000 1.000000 0.000000
vn 0.000000 1.000000 0.000000
vn 0.000000 1.000000 0.000000
vn 0.000000 1.000000 0.000000
vn 0.000000 1.000000 0.000000
vn 0.000000 1.000000 -0.000000
vn 0.000000 1.000000 -0.000000
vn 0.000000 1.000000 -0.000000
vn 0.000000 1.000000 -0.000000
vn 0.000000 1.000000 -0.000000
vn 0.000000 1.000000 -0.000000
vn 0.000000 1.000000 -0.000000
vn 0.000000 1.000000 -0.000000
vn 0.000000 1.000000 -0.000000
vn 0.000000 1.000000 0.000000
vn 0.000000 1.000000 0.000000
vn 0.000000 1.000000 0.000000
vn 0.000000 1.000000 0.000000
vn 0.000000 1.000000 0.000000
vn 0.000000 1.000000 0.000000
vn -0.000000 1.000000 0.000000
vn -0.000000 1.000000 0.000000
vn -0.000000 1.000000 0.000000
vn 0.000000 1.000000 -0.000000
vn 0.000000 1.000000 -0.000000
vn 0.000000 1.000000 -0.000000
s off
g libreroPuertaDer_pCube23
usemtl libreroPuertaDer_libreroPuertaDer_libreroPuertaDer_lambert2SG
f 1/1/1 2/2/2 32/3/3 25/4/4
f 3/5/5 4/6/6 18/7/7 13/8/8
f 28/9/9 29/10/10 8/11/11 7/12/12
f 15/13/13 16/14/14 2/15/15 1/16/16
f 2/2/17 16/17/18 31/18/19 32/3/20
f 25/4/21 26/19/22 15/20/23 1/1/24
f 13/21/25 14/22/26 9/23/27 3/5/28
f 5/24/29 6/25/30 11/26/31 10/27/32
f 12/28/33 17/29/34 18/30/35 4/6/36
f 9/23/37 12/28/38 4/6/39 3/5/40
f 10/31/41 20/32/42 21/33/43 5/34/44
f 7/35/45 19/36/46 27/37/47 28/38/48
f 7/12/49 8/11/50 24/39/51 19/40/52
f 29/41/53 30/42/54 24/43/55 8/44/56
f 22/45/57 23/46/58 11/47/59 6/48/60
f 21/49/61 22/50/62 6/25/63 5/24/64
f 26/19/65 27/37/66 19/36/67 15/20/68
f 21/33/69 20/32/70 14/22/71 13/21/72
f 13/8/73 18/7/74 22/50/75 21/49/76
f 18/30/77 17/29/78 23/46/79 22/45/80
f 30/42/81 31/18/82 16/17/83 24/43/84
f 19/40/85 24/39/86 16/14/87 15/13/88
f 14/22/89 26/19/90 25/4/91 9/23/92
f 28/38/93 27/37/94 20/32/95 10/31/96
f 10/27/97 11/26/98 29/10/99 28/9/100
f 23/46/101 30/42/102 29/41/103 11/47/104
f 32/3/105 31/18/106 17/29/107 12/28/108
f 25/4/109 32/3/110 12/28/111 9/23/112
usemtl libreroPuertaDer_libreroPuertaDer_libreroPuertaDer_lambert4SG
f 33/51/113 34/52/114 36/53/115 35/54/116
f 35/54/117 36/53/118 38/55/119 37/56/120
f 37/56/121 38/55/122 40/57/123 39/58/124
f 39/58/125 40/57/126 34/59/127 33/60/128
f 34/52/129 40/61/130 38/62/131 36/53/132
f 39/63/133 33/51/134 35/54/135 37/64/136
f 41/65/137 42/66/138 44/67/139 43/68/140
f 43/68/141 44/67/142 46/69/143 45/70/144
f 45/70/145 46/69/146 48/71/147 47/72/148
f 47/72/149 48/71/150 42/73/151 41/74/152
f 42/66/153 48/75/154 46/76/155 44/67/156
f 47/77/157 41/65/158 43/68/159 45/78/160
f 49/79/161 50/80/162 70/81/163 69/82/164
f 50/80/165 51/83/166 71/84/167 70/81/168
f 51/83/169 52/85/170 72/86/171 71/84/172
f 52/85/173 53/87/174 73/88/175 72/86/176
f 53/87/177 54/89/178 74/90/179 73/88/180
f 54/89/181 55/91/182 75/92/183 74/90/184
f 55/91/185 56/93/186 76/94/187 75/92/188
f 56/93/189 57/95/190 77/96/191 76/94/192
f 57/95/193 58/97/194 78/98/195 77/96/196
f 58/97/197 59/99/198 79/100/199 78/98/200
f 59/99/201 60/101/202 80/102/203 79/100/204
f 60/101/205 61/103/206 81/104/207 80/102/208
f 61/103/209 62/105/210 82/106/211 81/104/212
f 62/105/213 63/107/214 83/108/215 82/106/216
f 63/107/217 64/109/218 84/110/219 83/108/220
f 64/109/221 65/111/222 85/112/223 84/110/224
f 65/111/225 66/113/226 86/114/227 85/112/228
f 66/113/229 67/115/230 87/116/231 86/114/232
f 67/115/233 68/117/234 88/118/235 87/116/236
f 68/117/237 49/119/238 69/120/239 88/118/240
f 50/121/241 49/122/242 89/123/243
f 51/124/244 50/121/245 89/123/246
f 52/125/247 51/124/248 89/123/249
f 53/126/250 52/125/251 89/123/252
f 54/127/253 53/126/254 89/123/255
f 55/128/256 54/127/257 89/123/258
f 56/129/259 55/128/260 89/123/261
f 57/130/262 56/129/263 89/123/264
f 58/131/265 57/130/266 89/123/267
f 59/132/268 58/131/269 89/123/270
f 60/133/271 59/132/272 89/123/273
f 61/134/274 60/133/275 89/123/276
f 62/135/277 61/134/278 89/123/279
f 63/136/280 62/135/281 89/123/282
f 64/137/283 63/136/284 89/123/285
f 65/138/286 64/137/287 89/123/288
f 66/139/289 65/138/290 89/123/291
f 67/140/292 66/139/293 89/123/294
f 68/141/295 67/140/296 89/123/297
f 49/122/298 68/141/299 89/123/300
f 69/142/301 70/143/302 90/144/303
f 70/143/304 71/145/305 90/144/306
f 71/145/307 72/146/308 90/144/309
f 72/146/310 73/147/311 90/144/312
f 73/147/313 74/148/314 90/144/315
f 74/148/316 75/149/317 90/144/318
f 75/149/319 76/150/320 90/144/321
f 76/150/322 77/151/323 90/144/324
f 77/151/325 78/152/326 90/144/327
f 78/152/328 79/153/329 90/144/330
f 79/153/331 80/154/332 90/144/333
f 80/154/334 81/155/335 90/144/336
f 81/155/337 82/156/338 90/144/339
f 82/156/340 83/157/341 90/144/342
f 83/157/343 84/158/344 90/144/345
f 84/158/346 85/159/347 90/144/348
f 85/159/349 86/160/350 90/144/351
f 86/160/352 87/161/353 90/144/354
f 87/161/355 88/162/356 90/144/357
f 88/162/358 69/142/359 90/144/360
