# This file uses centimeters as units for non-parametric coordinates.

mtllib nezukoCaja.mtl
g default
v -1.019025 -0.569036 0.002504
v -0.019025 -0.569036 0.002504
v -1.019025 0.695425 0.002504
v -0.019025 0.695425 0.002504
v -1.019025 0.695425 -0.012559
v -0.019025 0.695425 -0.012559
v -1.019025 -0.569036 -0.012559
v -0.019025 -0.569036 -0.012559
vt -0.001877 0.000000
vt 1.001877 0.000000
vt 1.001877 0.994159
vt 0.010971 0.998171
vt 0.375000 0.492704
vt 0.625000 0.250000
vt 0.689240 0.500000
vt 0.375000 0.500000
vt 0.006688 0.014592
vt 1.014725 0.010580
vt 1.019008 0.996716
vt -0.006160 0.998722
vt 0.375000 0.862326
vt 0.625000 0.750000
vt 0.625000 1.000000
vt 0.375000 1.000000
vt 0.625000 0.000000
vt 0.875000 0.000000
vt 0.875000 0.250000
vt 0.856266 0.250000
vt 0.125000 0.000000
vt 0.053798 0.000000
vt 0.375000 0.250000
vt 0.125000 0.250000
vn 0.000000 0.000000 1.000000
vn 0.000000 0.000000 1.000000
vn 0.000000 0.000000 1.000000
vn 0.000000 0.000000 1.000000
vn 0.000000 1.000000 0.000000
vn 0.000000 1.000000 0.000000
vn 0.000000 1.000000 0.000000
vn 0.000000 1.000000 0.000000
vn 0.000000 0.000000 -1.000000
vn 0.000000 0.000000 -1.000000
vn 0.000000 0.000000 -1.000000
vn 0.000000 0.000000 -1.000000
vn 0.000000 -1.000000 0.000000
vn 0.000000 -1.000000 0.000000
vn 0.000000 -1.000000 0.000000
vn 0.000000 -1.000000 0.000000
vn 1.000000 0.000000 0.000000
vn 1.000000 0.000000 0.000000
vn 1.000000 0.000000 0.000000
vn 1.000000 0.000000 0.000000
vn -1.000000 0.000000 0.000000
vn -1.000000 0.000000 0.000000
vn -1.000000 0.000000 0.000000
vn -1.000000 0.000000 0.000000
s off
g pCube2
usemtl lambert5SG
f 1/1/1 2/2/2 4/3/3 3/4/4
f 3/5/5 4/6/6 6/7/7 5/8/8
f 5/9/9 6/10/10 8/11/11 7/12/12
f 7/13/13 8/14/14 2/15/15 1/16/16
f 2/17/17 8/18/18 6/19/19 4/20/20
f 7/21/21 1/22/22 3/23/23 5/24/24
g default
v -1.019025 -0.584343 -1.017924
v -0.019025 -0.584343 -1.017924
v -1.019025 -0.579077 -0.017939
v -0.019025 -0.579077 -0.017939
v -1.019025 -0.564013 -0.018019
v -0.019025 -0.564013 -0.018019
v -1.019025 -0.569279 -1.018004
v -0.019025 -0.569279 -1.018004
vt -0.001877 0.000000
vt 0.993312 0.000000
vt 0.997594 0.799595
vt 0.010971 0.799595
vt 0.625000 0.500000
vt 0.375000 0.500000
vt 0.625000 0.750000
vt 0.375000 0.750000
vt 0.625000 1.000000
vt 0.375000 1.000000
vt 0.875000 0.000000
vt 0.875000 0.250000
vt 0.125000 0.000000
vt 0.125000 0.250000
vn 0.000000 -0.999986 0.005266
vn 0.000000 -0.999986 0.005266
vn 0.000000 -0.999986 0.005266
vn 0.000000 -0.999986 0.005266
vn 0.000000 0.005286 0.999986
vn 0.000000 0.005286 0.999986
vn 0.000000 0.005286 0.999986
vn 0.000000 0.005286 0.999986
vn 0.000000 0.999986 -0.005266
vn 0.000000 0.999986 -0.005266
vn 0.000000 0.999986 -0.005266
vn 0.000000 0.999986 -0.005266
vn 0.000000 -0.005286 -0.999986
vn 0.000000 -0.005286 -0.999986
vn 0.000000 -0.005286 -0.999986
vn 0.000000 -0.005286 -0.999986
vn 1.000000 0.000000 0.000000
vn 1.000000 0.000000 0.000000
vn 1.000000 0.000000 0.000000
vn 1.000000 0.000000 0.000000
vn -1.000000 0.000000 0.000000
vn -1.000000 0.000000 0.000000
vn -1.000000 0.000000 0.000000
vn -1.000000 0.000000 0.000000
s off
g pCube3
usemtl lambert5SG
f 9/25/25 10/26/26 12/27/27 11/28/28
f 11/28/29 12/27/30 14/29/31 13/30/32
f 13/30/33 14/29/34 16/31/35 15/32/36
f 15/32/37 16/31/38 10/33/39 9/34/40
f 10/26/41 16/35/42 14/36/43 12/27/44
f 15/37/45 9/25/46 11/28/47 13/38/48
g default
v -1.019025 -0.569036 -1.007153
v -0.019025 -0.569036 -1.007153
v -1.019025 0.695425 -1.007153
v -0.019025 0.695425 -1.007153
v -1.019025 0.695425 -1.022216
v -0.019025 0.695425 -1.022216
v -1.019025 -0.569036 -1.022216
v -0.019025 -0.569036 -1.022216
vt 0.375000 0.000000
vt 0.625000 0.000000
vt 0.625000 0.250000
vt 0.375000 0.250000
vt 0.625000 0.500000
vt 0.375000 0.500000
vt 0.032384 0.008574
vt 0.997595 0.000551
vt 1.006160 0.996716
vt 0.002405 0.994710
vt 0.375000 0.872355
vt 0.625000 0.750000
vt 0.625000 1.000000
vt 0.375000 1.000000
vt 0.875000 0.000000
vt 0.875000 0.250000
vt 0.125000 0.000000
vt 0.125000 0.250000
vn 0.000000 0.000000 1.000000
vn 0.000000 0.000000 1.000000
vn 0.000000 0.000000 1.000000
vn 0.000000 0.000000 1.000000
vn 0.000000 1.000000 0.000000
vn 0.000000 1.000000 0.000000
vn 0.000000 1.000000 0.000000
vn 0.000000 1.000000 0.000000
vn 0.000000 0.000000 -1.000000
vn 0.000000 0.000000 -1.000000
vn 0.000000 0.000000 -1.000000
vn 0.000000 0.000000 -1.000000
vn 0.000000 -1.000000 0.000000
vn 0.000000 -1.000000 0.000000
vn 0.000000 -1.000000 0.000000
vn 0.000000 -1.000000 0.000000
vn 1.000000 0.000000 0.000000
vn 1.000000 0.000000 0.000000
vn 1.000000 0.000000 0.000000
vn 1.000000 0.000000 0.000000
vn -1.000000 0.000000 0.000000
vn -1.000000 0.000000 0.000000
vn -1.000000 0.000000 0.000000
vn -1.000000 0.000000 0.000000
s off
g pCube4
usemtl lambert5SG
f 17/39/49 18/40/50 20/41/51 19/42/52
f 19/42/53 20/41/54 22/43/55 21/44/56
f 21/45/57 22/46/58 24/47/59 23/48/60
f 23/49/61 24/50/62 18/51/63 17/52/64
f 18/40/65 24/53/66 22/54/67 20/41/68
f 23/55/69 17/39/70 19/42/71 21/56/72
g default
v -1.018859 -0.569036 -1.001132
v -1.003794 -0.569036 -0.001245
v -1.018859 0.695425 -1.001132
v -1.003794 0.695425 -0.001245
v -1.003796 0.695425 -1.001359
v -0.988731 0.695425 -0.001472
v -1.003796 -0.569036 -1.001359
v -0.988731 -0.569036 -0.001472
vt 0.040950 0.002356
vt 0.989029 0.000000
vt 0.997595 0.996165
vt 0.019536 0.992153
vt 0.375000 0.516774
vt 0.625000 0.250000
vt 0.625000 0.500000
vt 0.375000 0.500000
vt 0.625000 0.750000
vt 0.375000 0.750000
vt 0.625000 1.000000
vt 0.375000 1.000000
vt 0.625000 0.000000
vt 0.875000 0.000000
vt 0.875000 0.250000
vt 0.766329 0.250000
vt 0.125000 0.000000
vt 0.122321 0.000000
vt 0.375000 0.250000
vt 0.125000 0.250000
vn -0.999887 0.000000 0.015065
vn -0.999887 0.000000 0.015065
vn -0.999887 0.000000 0.015065
vn -0.999887 0.000000 0.015065
vn 0.000000 1.000000 0.000000
vn 0.000000 1.000000 0.000000
vn 0.000000 1.000000 0.000000
vn 0.000000 1.000000 0.000000
vn 0.999887 0.000000 -0.015065
vn 0.999887 0.000000 -0.015065
vn 0.999887 0.000000 -0.015065
vn 0.999887 0.000000 -0.015065
vn 0.000000 -1.000000 0.000000
vn 0.000000 -1.000000 0.000000
vn 0.000000 -1.000000 0.000000
vn 0.000000 -1.000000 0.000000
vn 0.015070 0.000000 0.999887
vn 0.015070 0.000000 0.999887
vn 0.015070 0.000000 0.999887
vn 0.015070 0.000000 0.999887
vn -0.015070 0.000000 -0.999887
vn -0.015070 0.000000 -0.999887
vn -0.015070 0.000000 -0.999887
vn -0.015070 0.000000 -0.999887
s off
g pCube5
usemtl lambert5SG
f 25/57/73 26/58/74 28/59/75 27/60/76
f 27/61/77 28/62/78 30/63/79 29/64/80
f 29/64/81 30/63/82 32/65/83 31/66/84
f 31/66/85 32/65/86 26/67/87 25/68/88
f 26/69/89 32/70/90 30/71/91 28/72/92
f 31/73/93 25/74/94 27/75/95 29/76/96
g default
v -1.019025 0.687590 -1.010599
v -0.019025 0.687590 -1.010599
v -1.019025 0.692855 -0.010612
v -0.019025 0.692855 -0.010612
v -1.019025 0.707921 -0.010692
v -0.019025 0.707921 -0.010692
v -1.019025 0.702654 -1.010677
v -0.019025 0.702654 -1.010677
vt 0.375000 0.000000
vt 0.625000 0.000000
vt 0.625000 0.250000
vt 0.375000 0.250000
vt 0.980464 -0.005467
vt 0.015254 -0.003461
vt 0.984746 0.986687
vt -0.023291 0.976658
vt 0.625000 1.000000
vt 0.375000 1.000000
vt 0.875000 0.000000
vt 0.875000 0.250000
vt 0.125000 0.000000
vt 0.125000 0.250000
vn 0.000000 -0.999986 0.005266
vn 0.000000 -0.999986 0.005266
vn 0.000000 -0.999986 0.005266
vn 0.000000 -0.999986 0.005266
vn 0.000000 0.005286 0.999986
vn 0.000000 0.005286 0.999986
vn 0.000000 0.005286 0.999986
vn 0.000000 0.005286 0.999986
vn 0.000000 0.999986 -0.005266
vn 0.000000 0.999986 -0.005266
vn 0.000000 0.999986 -0.005266
vn 0.000000 0.999986 -0.005266
vn 0.000000 -0.005286 -0.999986
vn 0.000000 -0.005286 -0.999986
vn 0.000000 -0.005286 -0.999986
vn 0.000000 -0.005286 -0.999986
vn 1.000000 0.000000 0.000000
vn 1.000000 0.000000 0.000000
vn 1.000000 0.000000 0.000000
vn 1.000000 0.000000 0.000000
vn -1.000000 0.000000 0.000000
vn -1.000000 0.000000 0.000000
vn -1.000000 0.000000 0.000000
vn -1.000000 0.000000 0.000000
s off
g pCube6
usemtl lambert5SG
f 33/77/97 34/78/98 36/79/99 35/80/100
f 35/80/101 36/79/102 38/81/103 37/82/104
f 37/82/105 38/81/106 40/83/107 39/84/108
f 39/84/109 40/83/110 34/85/111 33/86/112
f 34/78/113 40/87/114 38/88/115 36/79/116
f 39/89/117 33/77/118 35/80/119 37/90/120
