# This file uses centimeters as units for non-parametric coordinates.

mtllib puertaDer.mtl
g default
v -1.875681 -1.457537 0.118601
v -0.010680 -1.457537 0.123866
v -1.875681 2.077982 0.118601
v -0.010680 2.077982 0.123866
v -1.874981 2.077982 -0.129319
v -0.009980 2.077982 -0.124054
v -1.874981 -1.457537 -0.129319
v -0.009980 -1.457537 -0.124054
v -1.875681 1.758809 0.118601
v -1.874981 1.758809 -0.129319
v -0.009980 1.758809 -0.124054
v -0.010680 1.758809 0.123866
v -0.336300 -1.457537 0.122947
v -0.336300 1.758809 0.122947
v -0.336300 2.077982 0.122947
v -0.335600 2.077982 -0.124973
v -0.335600 1.758809 -0.124973
v -0.335600 -1.457537 -0.124973
v -1.491044 -1.457537 0.119687
v -1.491044 1.758809 0.119687
v -1.491044 2.077982 0.119687
v -1.490344 2.077982 -0.128233
v -1.490344 1.758809 -0.128233
v -1.490344 -1.457537 -0.128233
v -1.875681 0.576448 0.118601
v -1.874981 0.576448 -0.129319
v -1.490344 0.576448 -0.128233
v -0.335600 0.576448 -0.124973
v -0.009980 0.576448 -0.124054
v -0.010680 0.576448 0.123866
v -0.336300 0.576448 0.122947
v -1.491044 0.576448 0.119687
v -1.747230 0.149492 0.213885
v -1.518107 0.149492 0.214532
v -1.747230 0.437027 0.213885
v -1.518107 0.437027 0.214532
v -1.746839 0.437027 0.075413
v -1.517717 0.437027 0.076059
v -1.746839 0.149492 0.075413
v -1.517717 0.149492 0.076059
v -0.888370 1.168772 0.071892
v -0.459869 1.510860 0.073108
v -1.052043 1.722281 0.071436
v -1.418026 1.168772 0.070403
v -1.052043 0.615263 0.071436
v -0.459869 0.826684 0.073108
v -0.358714 1.168772 0.073402
v -0.724698 1.722281 0.072369
v -1.316871 1.510860 0.070697
v -1.316871 0.826684 0.070697
v -0.724697 0.615263 0.072369
v -0.888370 1.168772 0.071913
vt 0.375000 0.000000
vt 0.625000 0.000000
vt 0.375000 0.250000
vt 0.625000 0.250000
vt 0.375000 0.500000
vt 0.625000 0.500000
vt 0.375000 0.750000
vt 0.625000 0.750000
vt 0.375000 1.000000
vt 0.625000 1.000000
vt 0.875000 0.000000
vt 0.875000 0.250000
vt 0.125000 0.000000
vt 0.125000 0.250000
vt 0.375000 0.227431
vt 0.125000 0.227431
vt 0.375000 0.522569
vt 0.625000 0.522569
vt 0.875000 0.227431
vt 0.625000 0.227431
vt 0.581351 0.000000
vt 0.581351 1.000000
vt 0.581351 0.227431
vt 0.581351 0.250000
vt 0.581351 0.500000
vt 0.581351 0.522569
vt 0.581351 0.750000
vt 0.426560 0.000000
vt 0.426560 1.000000
vt 0.426560 0.227431
vt 0.426560 0.250000
vt 0.426560 0.500000
vt 0.426560 0.522569
vt 0.426560 0.750000
vt 0.375000 0.143825
vt 0.125000 0.143825
vt 0.375000 0.606175
vt 0.426560 0.606175
vt 0.581351 0.606175
vt 0.625000 0.606175
vt 0.875000 0.143825
vt 0.625000 0.143825
vt 0.581351 0.143825
vt 0.426560 0.143825
vt 0.375000 0.000000
vt 0.625000 0.000000
vt 0.625000 0.250000
vt 0.375000 0.250000
vt 0.625000 0.500000
vt 0.375000 0.500000
vt 0.625000 0.750000
vt 0.375000 0.750000
vt 0.625000 1.000000
vt 0.375000 1.000000
vt 0.875000 0.000000
vt 0.875000 0.250000
vt 0.125000 0.000000
vt 0.125000 0.250000
vt 1.000000 0.500000
vt 1.088104 0.823792
vt 0.838104 0.676208
vt 1.176208 0.500000
vt 1.088104 0.176208
vt 0.838104 0.323792
vt 0.588104 0.823792
vt 0.088104 0.823792
vt 0.176208 0.500000
vt 0.338104 0.676208
vt 0.088104 0.176208
vt 0.338104 0.323792
vt 0.588104 0.176208
vt 0.676208 0.500000
vt 0.500000 0.500000
vn -0.002823 0.000000 0.999996
vn -0.002823 0.000000 0.999996
vn -0.002823 0.000000 0.999996
vn -0.002823 0.000000 0.999996
vn 0.000000 1.000000 -0.000000
vn 0.000000 1.000000 -0.000000
vn 0.000000 1.000000 -0.000000
vn 0.000000 1.000000 -0.000000
vn 0.002823 0.000000 -0.999996
vn 0.002823 0.000000 -0.999996
vn 0.002823 0.000000 -0.999996
vn 0.002823 0.000000 -0.999996
vn 0.000000 -1.000000 0.000000
vn 0.000000 -1.000000 0.000000
vn 0.000000 -1.000000 0.000000
vn 0.000000 -1.000000 0.000000
vn 0.999996 0.000000 0.002823
vn 0.999996 0.000000 0.002823
vn 0.999996 0.000000 0.002823
vn 0.999996 0.000000 0.002823
vn -0.999996 0.000000 -0.002823
vn -0.999996 0.000000 -0.002823
vn -0.999996 0.000000 -0.002823
vn -0.999996 0.000000 -0.002823
vn -0.999996 0.000000 -0.002823
vn -0.999996 0.000000 -0.002823
vn -0.999996 0.000000 -0.002823
vn -0.999996 0.000000 -0.002823
vn 0.002823 0.000000 -0.999996
vn 0.002823 0.000000 -0.999996
vn 0.002823 0.000000 -0.999996
vn 0.002823 0.000000 -0.999996
vn 0.999996 0.000000 0.002823
vn 0.999996 0.000000 0.002823
vn 0.999996 0.000000 0.002823
vn 0.999996 0.000000 0.002823
vn -0.002823 0.000000 0.999996
vn -0.002823 0.000000 0.999996
vn -0.002823 0.000000 0.999996
vn -0.002823 0.000000 0.999996
vn -0.002823 0.000000 0.999996
vn -0.002823 0.000000 0.999996
vn -0.002823 0.000000 0.999996
vn -0.002823 0.000000 0.999996
vn -0.002823 0.000000 0.999996
vn -0.002823 0.000000 0.999996
vn -0.002823 0.000000 0.999996
vn -0.002823 0.000000 0.999996
vn 0.000000 1.000000 0.000000
vn 0.000000 1.000000 0.000000
vn 0.000000 1.000000 0.000000
vn 0.000000 1.000000 0.000000
vn 0.002823 0.000000 -0.999996
vn 0.002823 0.000000 -0.999996
vn 0.002823 0.000000 -0.999996
vn 0.002823 0.000000 -0.999996
vn 0.002823 0.000000 -0.999996
vn 0.002823 0.000000 -0.999996
vn 0.002823 0.000000 -0.999996
vn 0.002823 0.000000 -0.999996
vn 0.000000 -1.000000 0.000000
vn 0.000000 -1.000000 0.000000
vn 0.000000 -1.000000 0.000000
vn 0.000000 -1.000000 0.000000
vn -0.002823 0.000000 0.999996
vn -0.002823 0.000000 0.999996
vn -0.002823 0.000000 0.999996
vn -0.002823 0.000000 0.999996
vn 0.000000 1.000000 0.000000
vn 0.000000 1.000000 0.000000
vn 0.000000 1.000000 0.000000
vn 0.000000 1.000000 0.000000
vn 0.002823 0.000000 -0.999996
vn 0.002823 0.000000 -0.999996
vn 0.002823 0.000000 -0.999996
vn 0.002823 0.000000 -0.999996
vn 0.000000 -1.000000 0.000000
vn 0.000000 -1.000000 0.000000
vn 0.000000 -1.000000 0.000000
vn 0.000000 -1.000000 0.000000
vn 0.999996 0.000000 0.002821
vn 0.999996 0.000000 0.002821
vn 0.999996 0.000000 0.002821
vn 0.999996 0.000000 0.002821
vn -0.999996 0.000000 -0.002823
vn -0.999996 0.000000 -0.002823
vn -0.999996 0.000000 -0.002823
vn -0.999996 0.000000 -0.002823
vn 0.002827 0.000012 -0.999996
vn 0.002827 0.000012 -0.999996
vn 0.002827 0.000012 -0.999996
vn 0.002812 0.000007 -0.999996
vn 0.002812 0.000007 -0.999996
vn 0.002812 0.000007 -0.999996
vn 0.002812 -0.000007 -0.999996
vn 0.002812 -0.000007 -0.999996
vn 0.002812 -0.000007 -0.999996
vn 0.002827 -0.000012 -0.999996
vn 0.002827 -0.000012 -0.999996
vn 0.002827 -0.000012 -0.999996
vn 0.002837 0.000000 -0.999996
vn 0.002837 0.000000 -0.999996
vn 0.002837 0.000000 -0.999996
vn 0.002851 0.000079 -0.999996
vn 0.002851 0.000079 -0.999996
vn 0.002851 0.000079 -0.999996
vn 0.002750 0.000049 -0.999996
vn 0.002750 0.000049 -0.999996
vn 0.002750 0.000049 -0.999996
vn 0.002749 -0.000049 -0.999996
vn 0.002749 -0.000049 -0.999996
vn 0.002749 -0.000049 -0.999996
vn 0.002851 -0.000079 -0.999996
vn 0.002851 -0.000079 -0.999996
vn 0.002851 -0.000079 -0.999996
vn 0.002914 0.000000 -0.999996
vn 0.002914 0.000000 -0.999996
vn 0.002914 0.000000 -0.999996
vn -0.002749 0.000049 0.999996
vn -0.002749 0.000049 0.999996
vn -0.002749 0.000049 0.999996
vn -0.002851 0.000079 0.999996
vn -0.002851 0.000079 0.999996
vn -0.002851 0.000079 0.999996
vn -0.002914 0.000000 0.999996
vn -0.002914 0.000000 0.999996
vn -0.002914 0.000000 0.999996
vn -0.002851 -0.000079 0.999996
vn -0.002851 -0.000079 0.999996
vn -0.002851 -0.000079 0.999996
vn -0.002749 -0.000049 0.999996
vn -0.002749 -0.000049 0.999996
vn -0.002749 -0.000049 0.999996
vn -0.002813 0.000007 0.999996
vn -0.002813 0.000007 0.999996
vn -0.002813 0.000007 0.999996
vn -0.002827 0.000011 0.999996
vn -0.002827 0.000011 0.999996
vn -0.002827 0.000011 0.999996
vn -0.002836 0.000000 0.999996
vn -0.002836 0.000000 0.999996
vn -0.002836 0.000000 0.999996
vn -0.002827 -0.000011 0.999996
vn -0.002827 -0.000011 0.999996
vn -0.002827 -0.000011 0.999996
vn -0.002813 -0.000007 0.999996
vn -0.002813 -0.000007 0.999996
vn -0.002813 -0.000007 0.999996
s 1
g pCube3
usemtl lambert3SG
f 1/1/1 19/28/2 32/44/3 25/35/4
s 2
f 3/3/5 21/31/6 22/32/7 5/5/8
s 3
f 26/37/9 27/38/10 24/34/11 7/7/12
s 4
f 7/7/13 24/34/14 19/29/15 1/9/16
s 5
f 2/2/17 8/11/18 29/41/19 30/42/20
s 6
f 7/13/21 1/1/22 25/35/23 26/36/24
f 10/16/25 9/15/26 3/3/27 5/14/28
s 3
f 5/5/29 22/32/30 23/33/31 10/17/32
s 5
f 12/20/33 11/19/34 6/12/35 4/4/36
s 1
f 9/15/37 20/30/38 21/31/39 3/3/40
f 30/42/41 31/43/42 13/21/43 2/2/44
f 15/24/45 14/23/46 12/20/47 4/4/48
s 2
f 16/25/49 15/24/50 4/4/51 6/6/52
s 3
f 17/26/53 16/25/54 6/6/55 11/18/56
f 18/27/57 28/39/58 29/40/59 8/8/60
s 4
f 13/22/61 18/27/62 8/8/63 2/10/64
s 1
f 31/43/42 32/44/3 19/28/2 13/21/43
f 21/31/39 20/30/38 14/23/46 15/24/45
s 2
f 22/32/7 21/31/6 15/24/50 16/25/49
s 3
f 23/33/31 22/32/30 16/25/54 17/26/53
f 24/34/11 27/38/10 28/39/58 18/27/57
s 4
f 19/29/15 24/34/14 18/27/62 13/22/61
s 6
f 26/36/24 25/35/23 9/15/26 10/16/25
s 3
f 10/17/32 23/33/31 27/38/10 26/37/9
f 29/40/59 28/39/58 17/26/53 11/18/56
s 5
f 30/42/20 29/41/19 11/19/34 12/20/33
s 1
f 14/23/46 31/43/42 30/42/41 12/20/47
f 25/35/4 32/44/3 20/30/38 9/15/37
s off
usemtl lambert4SG
f 33/45/65 34/46/66 36/47/67 35/48/68
f 35/48/69 36/47/70 38/49/71 37/50/72
f 37/50/73 38/49/74 40/51/75 39/52/76
f 39/52/77 40/51/78 34/53/79 33/54/80
f 34/46/81 40/55/82 38/56/83 36/47/84
f 39/57/85 33/45/86 35/48/87 37/58/88
usemtl lambert5SG
f 41/59/89 43/60/90 42/61/91
f 41/59/92 44/62/93 43/60/94
f 41/59/95 45/63/96 44/62/97
f 41/59/98 46/64/99 45/63/100
f 41/59/101 42/61/102 46/64/103
f 42/61/104 43/60/105 48/65/106
f 43/66/107 44/67/108 49/68/109
f 44/67/110 45/69/111 50/70/112
f 45/63/113 46/64/114 51/71/115
f 46/64/116 42/61/117 47/72/118
f 42/61/119 48/65/120 47/72/121
f 43/66/122 49/68/123 48/65/124
f 44/67/125 50/70/126 49/68/127
f 45/69/128 51/71/129 50/70/130
f 46/64/131 47/72/132 51/71/133
f 47/72/134 48/65/135 52/73/136
f 48/65/137 49/68/138 52/73/139
f 49/68/140 50/70/141 52/73/142
f 50/70/143 51/71/144 52/73/145
f 51/71/146 47/72/147 52/73/148
